<svg xmlns="http://www.w3.org/2000/svg" xmlns:xlink="http://www.w3.org/1999/xlink" version="1.1" x="0px" y="0px" viewBox="0 0 100 125" style="enable-background:new 0 0 100 100;" xml:space="preserve"><g><path d="M50,2.5C23.808588,2.5,2.5,23.808588,2.5,50S23.808588,97.5,50,97.5S97.5,76.1914139,97.5,50S76.1914139,2.5,50,2.5z    M82.8005219,79.9403229C74.9349823,69.8989029,62.8097191,63.9639626,50,63.9639626   c-12.8096542,0-24.9349194,5.9349403-32.8005219,15.9763603C9.9774265,72.0440445,5.5645161,61.5225487,5.5645161,50   C5.5645161,25.4940968,25.4940968,5.5645161,50,5.5645161S94.4354858,25.4940968,94.4354858,50   C94.4354858,61.5225487,90.0225754,72.0440445,82.8005219,79.9403229z"/><circle cx="50" cy="40.5101891" r="23.1268883"/></g><text x="0" y="115" fill="#000000" font-size="5px" font-weight="bold" font-family="'Helvetica Neue', Helvetica, Arial-Unicode, Arial, Sans-serif">Created by Morviner Langga</text><text x="0" y="120" fill="#000000" font-size="5px" font-weight="bold" font-family="'Helvetica Neue', Helvetica, Arial-Unicode, Arial, Sans-serif">from the Noun Project</text></svg>